<svg width="7" height="12" viewBox="0 0 7 12" fill="none" xmlns="http://www.w3.org/2000/svg">
<path fill-rule="evenodd" clip-rule="evenodd" d="M2.60219 0.946462C3.20664 0.340552 4.0265 0.000101384 4.8814 0H6.53923C6.66137 0 6.7785 0.0486262 6.86486 0.135181C6.95123 0.221737 6.99974 0.339131 6.99974 0.461538V2.67692C6.99974 2.79933 6.95123 2.91672 6.86486 3.00328C6.7785 3.08984 6.66137 3.13846 6.53923 3.13846H4.8814C4.86931 3.13846 4.85733 3.14085 4.84615 3.14549C4.83498 3.15013 4.82483 3.15693 4.81627 3.1655C4.80772 3.17407 4.80094 3.18425 4.79631 3.19544C4.79168 3.20664 4.7893 3.21865 4.7893 3.23077V4.43077H6.53923C6.60924 4.43073 6.67834 4.44669 6.74127 4.47743C6.8042 4.50818 6.85931 4.5529 6.90241 4.60819C6.9455 4.66349 6.97545 4.72791 6.98998 4.79655C7.0045 4.86518 7.00322 4.93624 6.98624 5.00431L6.43362 7.21969C6.40869 7.31958 6.35115 7.40824 6.27016 7.47158C6.18916 7.53491 6.08936 7.56929 5.98662 7.56923H4.7893V11.5385C4.7893 11.6609 4.74078 11.7783 4.65442 11.8648C4.56806 11.9514 4.45092 12 4.32879 12H2.11834C1.99621 12 1.87908 11.9514 1.79271 11.8648C1.70635 11.7783 1.65783 11.6609 1.65783 11.5385V7.56923H0.460509C0.338375 7.56923 0.221242 7.5206 0.13488 7.43405C0.0485178 7.34749 0 7.2301 0 7.10769V4.89231C0 4.8317 0.0119114 4.77168 0.0350542 4.71568C0.0581969 4.65969 0.0921178 4.60881 0.13488 4.56595C0.177642 4.52309 0.228409 4.4891 0.28428 4.4659C0.340152 4.44271 0.400034 4.43077 0.460509 4.43077H1.65783V3.23077C1.65794 2.37395 1.99763 1.55227 2.60219 0.946462ZM4.8814 0.923077C4.27073 0.923077 3.68506 1.16621 3.25325 1.59898C2.82144 2.03176 2.57885 2.61873 2.57885 3.23077V4.89231C2.57885 5.01472 2.53034 5.13211 2.44397 5.21867C2.35761 5.30522 2.24048 5.35385 2.11834 5.35385H0.921019V6.64615H2.11834C2.24048 6.64615 2.35761 6.69478 2.44397 6.78134C2.53034 6.86789 2.57885 6.98529 2.57885 7.10769V11.0769H3.86828V7.10769C3.86828 6.98529 3.9168 6.86789 4.00316 6.78134C4.08952 6.69478 4.20665 6.64615 4.32879 6.64615H5.62681L5.94917 5.35385H4.32879C4.20665 5.35385 4.08952 5.30522 4.00316 5.21867C3.9168 5.13211 3.86828 5.01472 3.86828 4.89231V3.23077C3.86828 2.96147 3.97502 2.70321 4.16502 2.51278C4.35501 2.32236 4.6127 2.21538 4.8814 2.21538H6.07872V0.923077H4.8814Z" fill="#555D67"/>
</svg>
