<svg width="11" height="12" viewBox="0 0 11 12" fill="none" xmlns="http://www.w3.org/2000/svg">
<path d="M5.5 2.91648C4.94146 2.91648 4.39546 3.097 3.93104 3.4352C3.46663 3.7734 3.10467 4.2541 2.89092 4.81651C2.67718 5.37892 2.62125 5.99778 2.73022 6.59483C2.83918 7.19189 3.10815 7.74031 3.5031 8.17076C3.89805 8.60121 4.40124 8.89435 4.94906 9.01311C5.49687 9.13187 6.06469 9.07092 6.58071 8.83796C7.09674 8.60501 7.5378 8.21051 7.84811 7.70435C8.15842 7.19819 8.32404 6.60312 8.32404 5.99437C8.32495 5.5899 8.25253 5.18922 8.11093 4.81534C7.96933 4.44147 7.76134 4.10177 7.49893 3.81577C7.23651 3.52976 6.92483 3.30309 6.58179 3.14876C6.23875 2.99443 5.87111 2.91549 5.5 2.91648ZM5.5 7.99875C5.13627 7.99875 4.7807 7.88119 4.47827 7.66095C4.17583 7.44071 3.94011 7.12766 3.80092 6.76141C3.66172 6.39516 3.6253 5.99215 3.69626 5.60333C3.76722 5.21452 3.94238 4.85738 4.19958 4.57706C4.45678 4.29674 4.78447 4.10584 5.14121 4.0285C5.49796 3.95116 5.86774 3.99086 6.20378 4.14256C6.53983 4.29427 6.82705 4.55118 7.02913 4.8808C7.23121 5.21041 7.33907 5.59794 7.33907 5.99437C7.33907 6.52596 7.14531 7.03578 6.80042 7.41168C6.45553 7.78757 5.98775 7.99875 5.5 7.99875ZM9.10238 2.78886C9.10238 2.93734 9.06198 3.08248 8.9863 3.20593C8.91061 3.32939 8.80304 3.42561 8.67718 3.48242C8.55132 3.53924 8.41282 3.55411 8.27921 3.52514C8.1456 3.49618 8.02287 3.42468 7.92654 3.31969C7.83021 3.2147 7.76461 3.08094 7.73803 2.93532C7.71145 2.7897 7.72509 2.63876 7.77723 2.50158C7.82936 2.36441 7.91764 2.24717 8.03092 2.16468C8.14419 2.08219 8.27736 2.03816 8.41359 2.03816C8.59627 2.03816 8.77146 2.11725 8.90064 2.25804C9.02981 2.39882 9.10238 2.58977 9.10238 2.78886ZM10.969 3.53957C10.989 2.60631 10.6696 1.70229 10.0805 1.02471C9.46208 0.374367 8.63222 0.0179846 7.77301 0.0337817C6.87758 -0.0112606 4.12242 -0.0112606 3.22699 0.0337817C2.37096 0.0135796 1.54205 0.361465 0.919537 1.00219C0.330367 1.67977 0.0109614 2.58379 0.0309956 3.51705C-0.0103319 4.49296 -0.0103319 7.49578 0.0309956 8.47169C0.0109614 9.40495 0.330367 10.309 0.919537 10.9865C1.54205 11.6273 2.37096 11.9752 3.22699 11.955C4.13619 12.015 6.86381 12.015 7.77301 11.955C8.6293 11.9768 9.45876 11.6287 10.0805 10.9865C10.6696 10.309 10.989 9.40495 10.969 8.47169C11.0103 7.49578 11.0103 4.49296 10.969 3.51705V3.53957ZM9.79806 9.5452C9.70454 9.80339 9.56336 10.0379 9.38326 10.2342C9.20317 10.4305 8.988 10.5843 8.75109 10.6863C7.68181 10.9219 6.58868 11.0027 5.5 10.9265C4.41361 11.0028 3.32273 10.922 2.25579 10.6863C2.01889 10.5843 1.80372 10.4305 1.62363 10.2342C1.44353 10.0379 1.30235 9.80339 1.20883 9.5452C0.919537 8.74945 0.981528 6.87269 0.981528 6.00188C0.981528 5.13106 0.919537 3.24679 1.20883 2.45855C1.29971 2.19781 1.43988 1.96081 1.62025 1.76293C1.80062 1.56506 2.01715 1.41074 2.25579 1.30998C3.32273 1.07424 4.41361 0.993464 5.5 1.06975C6.58868 0.993592 7.68181 1.07436 8.75109 1.30998C8.988 1.4119 9.20317 1.56578 9.38326 1.76206C9.56336 1.95834 9.70454 2.19285 9.79806 2.45105C10.0874 3.24679 10.0185 5.12355 10.0185 5.99437C10.0185 6.86519 10.0874 8.74945 9.79806 9.53769V9.5452Z" fill="#555D67"/>
</svg>
