<svg width="12" height="12" viewBox="0 0 12 12" fill="none" xmlns="http://www.w3.org/2000/svg">
<path d="M12 11.3724L8.648 8.02038C9.4535 7.05336 9.85518 5.81301 9.76947 4.55737C9.68376 3.30173 9.11726 2.12747 8.18782 1.27887C7.25838 0.430275 6.03756 -0.0273262 4.77932 0.00126329C3.52108 0.0298528 2.32231 0.542432 1.43237 1.43237C0.542432 2.32231 0.0298528 3.52108 0.00126329 4.77932C-0.0273262 6.03756 0.430275 7.25838 1.27887 8.18782C2.12747 9.11726 3.30173 9.68376 4.55737 9.76947C5.81301 9.85518 7.05336 9.4535 8.02038 8.648L11.3724 12L12 11.3724ZM0.903586 4.89829C0.903586 4.10822 1.13787 3.33588 1.57682 2.67895C2.01576 2.02203 2.63965 1.51001 3.36959 1.20766C4.09952 0.905315 4.90273 0.826206 5.67762 0.980343C6.45252 1.13448 7.16431 1.51494 7.72298 2.07361C8.28165 2.63228 8.66211 3.34407 8.81625 4.11897C8.97038 4.89386 8.89128 5.69707 8.58893 6.427C8.28658 7.15694 7.77456 7.78083 7.11764 8.21977C6.46071 8.65872 5.68837 8.893 4.89829 8.893C3.83919 8.89183 2.82381 8.47058 2.07491 7.72168C1.32601 6.97278 0.90476 5.9574 0.903586 4.89829Z" fill="#555D67"/>
</svg>
