<svg width="34" height="34" viewBox="0 0 34 34" fill="none" xmlns="http://www.w3.org/2000/svg">
<circle cx="17" cy="17" r="17" fill="#35589D"/>
<path fill-rule="evenodd" clip-rule="evenodd" d="M15.1785 11.1535C15.9168 10.415 16.9183 10.0001 17.9625 10H19.9875C20.1367 10 20.2798 10.0593 20.3852 10.1648C20.4907 10.2702 20.55 10.4133 20.55 10.5625V13.2625C20.55 13.4117 20.4907 13.5548 20.3852 13.6602C20.2798 13.7657 20.1367 13.825 19.9875 13.825H17.9625C17.9477 13.825 17.9331 13.8279 17.9194 13.8336C17.9058 13.8392 17.8934 13.8475 17.883 13.858C17.8725 13.8684 17.8642 13.8808 17.8586 13.8944C17.8529 13.9081 17.85 13.9227 17.85 13.9375V15.4H19.9875C20.073 15.4 20.1574 15.4194 20.2343 15.4569C20.3112 15.4943 20.3785 15.5488 20.4311 15.6162C20.4837 15.6836 20.5203 15.7621 20.5381 15.8458C20.5558 15.9294 20.5543 16.016 20.5335 16.099L19.8585 18.799C19.828 18.9207 19.7578 19.0288 19.6588 19.106C19.5599 19.1832 19.438 19.2251 19.3125 19.225H17.85V24.0625C17.85 24.2117 17.7907 24.3548 17.6852 24.4602C17.5798 24.5657 17.4367 24.625 17.2875 24.625H14.5875C14.4383 24.625 14.2952 24.5657 14.1898 24.4602C14.0843 24.3548 14.025 24.2117 14.025 24.0625V19.225H12.5625C12.4133 19.225 12.2702 19.1657 12.1648 19.0602C12.0593 18.9548 12 18.8117 12 18.6625V15.9625C12 15.8886 12.0145 15.8155 12.0428 15.7472C12.0711 15.679 12.1125 15.617 12.1648 15.5648C12.217 15.5125 12.279 15.4711 12.3472 15.4428C12.4155 15.4145 12.4886 15.4 12.5625 15.4H14.025V13.9375C14.0251 12.8933 14.44 11.8918 15.1785 11.1535ZM17.9625 11.125C17.2166 11.125 16.5012 11.4213 15.9738 11.9488C15.4463 12.4762 15.15 13.1916 15.15 13.9375V15.9625C15.15 16.1117 15.0907 16.2548 14.9852 16.3602C14.8798 16.4657 14.7367 16.525 14.5875 16.525H13.125V18.1H14.5875C14.7367 18.1 14.8798 18.1593 14.9852 18.2648C15.0907 18.3702 15.15 18.5133 15.15 18.6625V23.5H16.725V18.6625C16.725 18.5133 16.7843 18.3702 16.8898 18.2648C16.9952 18.1593 17.1383 18.1 17.2875 18.1H18.873L19.2667 16.525H17.2875C17.1383 16.525 16.9952 16.4657 16.8898 16.3602C16.7843 16.2548 16.725 16.1117 16.725 15.9625V13.9375C16.725 13.6093 16.8554 13.2945 17.0875 13.0625C17.3195 12.8304 17.6343 12.7 17.9625 12.7H19.425V11.125H17.9625Z" fill="white"/>
</svg>
