<svg width="34" height="34" viewBox="0 0 34 34" fill="none" xmlns="http://www.w3.org/2000/svg">
<circle cx="17" cy="17" r="17" fill="#01CCFC"/>
<path d="M25.0822 11.0317C25.251 11.0332 25.4162 11.0806 25.56 11.169C25.7037 11.2574 25.8205 11.3834 25.8977 11.5333C25.9749 11.6832 26.0095 11.8513 25.9978 12.0194C25.9861 12.1875 25.9285 12.3492 25.8314 12.487L24.8987 13.8101C24.8414 18.3537 23.3187 21.4385 20.3729 22.9796C18.9691 23.6758 17.418 24.0248 15.8507 23.9971C13.9126 24.0416 11.9974 23.5718 10.3008 22.6356C10.1867 22.5591 10.0985 22.4498 10.0478 22.3222C9.99719 22.1946 9.98646 22.0547 10.0171 21.9209C10.0457 21.7852 10.115 21.6612 10.2157 21.5656C10.3163 21.4699 10.4437 21.4069 10.581 21.3849C11.7207 21.2261 12.8431 20.9611 13.9333 20.5934C9.04765 18.3377 10.1129 13.2669 10.5783 11.7098C10.6237 11.5552 10.709 11.4153 10.8257 11.304C10.9424 11.1927 11.0864 11.114 11.2432 11.0758C11.4 11.0376 11.5641 11.0413 11.7191 11.0864C11.874 11.1315 12.0144 11.2165 12.126 11.3328C13.5561 12.8035 15.4523 13.7347 17.4923 13.9682C17.4561 13.4211 17.5409 12.8727 17.7406 12.3618C17.9403 11.851 18.25 11.3902 18.6479 11.0121C19.3373 10.3592 20.2523 9.99669 21.2027 10C22.153 10.0034 23.0655 10.3722 23.7502 11.03L25.0822 11.0317ZM11.3043 22.1738C12.971 22.9528 16.8774 23.7988 19.9575 22.1881C22.6026 20.8042 23.9641 17.9607 24.0044 13.736C24.0062 13.5963 24.0506 13.4604 24.1315 13.3464L25.0992 11.9725L25.0625 11.9251C24.5988 11.9189 24.1414 11.9126 23.675 11.9251C23.4932 11.9209 23.3191 11.8508 23.1854 11.7277C22.6701 11.2064 21.9705 10.9076 21.2369 10.8956C20.5032 10.8836 19.7942 11.1592 19.262 11.6634C18.9202 11.9878 18.6647 12.3921 18.5186 12.8397C18.3725 13.2873 18.3403 13.7642 18.4251 14.2273C18.4406 14.3136 18.4363 14.4023 18.4124 14.4866C18.3886 14.571 18.3457 14.6488 18.2872 14.7142C18.2311 14.7801 18.1597 14.8313 18.0792 14.8633C17.9986 14.8952 17.9114 14.9069 17.8253 14.8973C15.4203 14.7298 13.162 13.6815 11.4842 11.9537C10.8845 13.8101 10.1236 18.2912 14.9475 20.052C15.049 20.0884 15.138 20.1529 15.204 20.2381C15.2699 20.3232 15.3101 20.4254 15.3198 20.5327C15.3308 20.6382 15.3113 20.7447 15.2637 20.8397C15.2162 20.9346 15.1425 21.014 15.0513 21.0687C13.8725 21.6424 12.6062 22.0158 11.3043 22.1738Z" fill="white"/>
</svg>
