<svg width="34" height="34" viewBox="0 0 34 34" fill="none" xmlns="http://www.w3.org/2000/svg">
<circle cx="17" cy="17" r="17" fill="#FF3E6A"/>
<path d="M17 13.4026C16.2891 13.4026 15.5942 13.6132 15.0031 14.0077C14.4121 14.4023 13.9514 14.9631 13.6794 15.6193C13.4073 16.2754 13.3361 16.9974 13.4748 17.694C13.6135 18.3905 13.9558 19.0304 14.4585 19.5326C14.9612 20.0347 15.6016 20.3767 16.2988 20.5153C16.996 20.6539 17.7187 20.5827 18.3755 20.311C19.0322 20.0392 19.5936 19.5789 19.9885 18.9884C20.3834 18.3979 20.5942 17.7036 20.5942 16.9934C20.5954 16.5215 20.5032 16.0541 20.323 15.6179C20.1428 15.1817 19.8781 14.7854 19.5441 14.4517C19.2101 14.1181 18.8134 13.8536 18.3768 13.6736C17.9402 13.4935 17.4723 13.4014 17 13.4026ZM17 19.3319C16.5371 19.3319 16.0845 19.1947 15.6996 18.9378C15.3147 18.6808 15.0147 18.3156 14.8375 17.8883C14.6604 17.461 14.614 16.9908 14.7043 16.5372C14.7947 16.0836 15.0176 15.6669 15.3449 15.3399C15.6723 15.0129 16.0893 14.7902 16.5434 14.6999C16.9974 14.6097 17.468 14.656 17.8957 14.833C18.3234 15.01 18.689 15.3097 18.9462 15.6943C19.2034 16.0788 19.3406 16.5309 19.3406 16.9934C19.3406 17.6136 19.094 18.2084 18.6551 18.647C18.2161 19.0855 17.6208 19.3319 17 19.3319ZM21.5848 13.2537C21.5848 13.4269 21.5334 13.5962 21.4371 13.7403C21.3408 13.8843 21.2039 13.9965 21.0437 14.0628C20.8835 14.1291 20.7072 14.1465 20.5372 14.1127C20.3671 14.0789 20.2109 13.9955 20.0883 13.873C19.9657 13.7505 19.8822 13.5944 19.8484 13.4245C19.8146 13.2546 19.8319 13.0785 19.8983 12.9185C19.9646 12.7585 20.077 12.6217 20.2212 12.5255C20.3653 12.4292 20.5348 12.3779 20.7082 12.3779C20.9407 12.3779 21.1637 12.4701 21.3281 12.6344C21.4925 12.7986 21.5848 13.0214 21.5848 13.2537ZM23.9606 14.1295C23.986 13.0407 23.5795 11.986 22.8297 11.1955C22.0427 10.4368 20.9865 10.021 19.8929 10.0394C18.7533 9.98686 15.2467 9.98686 14.1071 10.0394C13.0176 10.0158 11.9626 10.4217 11.1703 11.1692C10.4205 11.9597 10.014 13.0144 10.0394 14.1032C9.98685 15.2418 9.98685 18.7451 10.0394 19.8836C10.014 20.9724 10.4205 22.0271 11.1703 22.8176C11.9626 23.5652 13.0176 23.971 14.1071 23.9475C15.2642 24.0175 18.7358 24.0175 19.8929 23.9475C20.9827 23.9729 22.0384 23.5668 22.8297 22.8176C23.5795 22.0271 23.986 20.9724 23.9606 19.8836C24.0132 18.7451 24.0132 15.2418 23.9606 14.1032V14.1295ZM22.4703 21.1361C22.3512 21.4373 22.1715 21.7109 21.9423 21.9399C21.7131 22.1689 21.4393 22.3484 21.1378 22.4673C19.7769 22.7422 18.3856 22.8364 17 22.7476C15.6173 22.8366 14.2289 22.7423 12.871 22.4673C12.5695 22.3484 12.2956 22.1689 12.0664 21.9399C11.8372 21.7109 11.6575 21.4373 11.5385 21.1361C11.1703 20.2077 11.2492 18.0181 11.2492 17.0022C11.2492 15.9862 11.1703 13.7879 11.5385 12.8683C11.6542 12.5641 11.8326 12.2876 12.0621 12.0568C12.2917 11.8259 12.5673 11.6459 12.871 11.5283C14.2289 11.2533 15.6173 11.159 17 11.248C18.3856 11.1592 19.7769 11.2534 21.1378 11.5283C21.4393 11.6472 21.7131 11.8267 21.9423 12.0557C22.1715 12.2847 22.3512 12.5583 22.4703 12.8596C22.8384 13.7879 22.7508 15.9775 22.7508 16.9934C22.7508 18.0094 22.8384 20.2077 22.4703 21.1273V21.1361Z" fill="white"/>
</svg>
