<svg width="231" height="45" viewBox="0 0 231 45" fill="none" xmlns="http://www.w3.org/2000/svg">
<rect width="231" height="45" fill="url(#paint0_linear_10_76)"/>
<path d="M20.7766 30.6154H17.9606V17.2834H13.4506V14.9074H25.2866V17.2834H20.7766V30.6154ZM41.2978 22.7394C41.2978 24.3674 41.0265 25.7901 40.4838 27.0074C39.9558 28.2101 39.1418 29.1487 38.0418 29.8234C36.9418 30.4981 35.5632 30.8354 33.9058 30.8354C32.2338 30.8354 30.8478 30.4981 29.7478 29.8234C28.6625 29.1487 27.8485 28.2027 27.3058 26.9854C26.7778 25.7681 26.5138 24.3454 26.5138 22.7174C26.5138 21.1041 26.7778 19.6961 27.3058 18.4934C27.8485 17.2761 28.6625 16.3374 29.7478 15.6774C30.8478 15.0027 32.2412 14.6654 33.9278 14.6654C35.5852 14.6654 36.9565 15.0027 38.0418 15.6774C39.1418 16.3374 39.9558 17.2761 40.4838 18.4934C41.0265 19.6961 41.2978 21.1114 41.2978 22.7394ZM29.4838 22.7394C29.4838 24.5141 29.8358 25.9074 30.5398 26.9194C31.2438 27.9314 32.3658 28.4374 33.9058 28.4374C35.4605 28.4374 36.5825 27.9314 37.2718 26.9194C37.9758 25.9074 38.3278 24.5141 38.3278 22.7394C38.3278 20.9647 37.9832 19.5714 37.2938 18.5594C36.6045 17.5474 35.4825 17.0414 33.9278 17.0414C32.3878 17.0414 31.2585 17.5474 30.5398 18.5594C29.8358 19.5714 29.4838 20.9647 29.4838 22.7394ZM49.3287 14.9074C51.3673 14.9074 52.8487 15.3327 53.7727 16.1834C54.7113 17.0341 55.1807 18.2074 55.1807 19.7034C55.1807 20.5981 54.99 21.4414 54.6087 22.2334C54.2273 23.0107 53.582 23.6414 52.6727 24.1254C51.778 24.5947 50.5607 24.8294 49.0207 24.8294H47.4587V30.6154H44.6427V14.9074H49.3287ZM49.1527 17.2394H47.4587V22.4974H48.7347C49.8787 22.4974 50.7587 22.2921 51.3747 21.8814C52.0053 21.4561 52.3207 20.7667 52.3207 19.8134C52.3207 18.9481 52.064 18.3027 51.5507 17.8774C51.0373 17.4521 50.238 17.2394 49.1527 17.2394ZM69.3026 30.6154H62.7026V29.0094L64.5946 28.3054V17.2394L62.7026 16.5134V14.9074H69.3026V16.5134L67.4106 17.2394V28.3054L69.3026 29.0094V30.6154ZM85.4752 30.6154H81.9772L74.5412 18.2954H74.4532C74.4972 18.9554 74.5339 19.6667 74.5632 20.4294C74.6072 21.1774 74.6365 21.9327 74.6512 22.6954V30.6154H72.1212V14.9074H75.5972L83.0112 27.1394H83.0772C83.0479 26.5527 83.0185 25.8781 82.9892 25.1154C82.9599 24.3527 82.9379 23.6121 82.9232 22.8934V14.9074H85.4752V30.6154ZM102.415 22.6074C102.415 25.2621 101.674 27.2641 100.193 28.6134C98.7112 29.9481 96.6432 30.6154 93.9885 30.6154H89.5665V14.9074H94.4505C96.0638 14.9074 97.4645 15.2007 98.6525 15.7874C99.8552 16.3741 100.779 17.2394 101.425 18.3834C102.085 19.5127 102.415 20.9207 102.415 22.6074ZM99.4665 22.6954C99.4665 20.8181 99.0338 19.4394 98.1685 18.5594C97.3178 17.6794 96.0785 17.2394 94.4505 17.2394H92.3825V28.2614H94.0765C97.6698 28.2614 99.4665 26.4061 99.4665 22.6954ZM111.09 30.6154H104.49V29.0094L106.382 28.3054V17.2394L104.49 16.5134V14.9074H111.09V16.5134L109.198 17.2394V28.3054L111.09 29.0094V30.6154ZM123.61 30.6154L122.18 26.4574H116.262L114.854 30.6154H111.862L117.626 14.8414H120.838L126.602 30.6154H123.61ZM120.09 19.9894C120.032 19.7841 119.944 19.5054 119.826 19.1534C119.709 18.8014 119.592 18.4421 119.474 18.0754C119.372 17.6941 119.291 17.3787 119.232 17.1294C119.159 17.4227 119.064 17.7601 118.946 18.1414C118.844 18.5227 118.741 18.8821 118.638 19.2194C118.536 19.5567 118.462 19.8134 118.418 19.9894L117.032 24.0374H121.454L120.09 19.9894ZM142.022 30.6154H138.524L131.088 18.2954H131C131.044 18.9554 131.081 19.6667 131.11 20.4294C131.154 21.1774 131.183 21.9327 131.198 22.6954V30.6154H128.668V14.9074H132.144L139.558 27.1394H139.624C139.595 26.5527 139.565 25.8781 139.536 25.1154C139.507 24.3527 139.485 23.6121 139.47 22.8934V14.9074H142.022V30.6154ZM165.182 30.6154H161.684L154.248 18.2954H154.16C154.204 18.9554 154.241 19.6667 154.27 20.4294C154.314 21.1774 154.344 21.9327 154.358 22.6954V30.6154H151.828V14.9074H155.304L162.718 27.1394H162.784C162.755 26.5527 162.726 25.8781 162.696 25.1154C162.667 24.3527 162.645 23.6121 162.63 22.8934V14.9074H165.182V30.6154ZM178.206 30.6154H169.274V14.9074H178.206V17.2614H172.09V21.2654H177.81V23.6194H172.09V28.2394H178.206V30.6154ZM200.351 14.9074L196.281 30.6154H193.179L190.693 21.5954C190.605 21.3021 190.51 20.9281 190.407 20.4734C190.304 20.0041 190.209 19.5494 190.121 19.1094C190.033 18.6694 189.974 18.3467 189.945 18.1414C189.916 18.3467 189.857 18.6694 189.769 19.1094C189.696 19.5347 189.6 19.9821 189.483 20.4514C189.38 20.9207 189.285 21.3167 189.197 21.6394L186.777 30.6154H183.653L179.605 14.9074H182.421L184.577 23.8614C184.68 24.2427 184.775 24.6754 184.863 25.1594C184.966 25.6434 185.061 26.1274 185.149 26.6114C185.237 27.0807 185.303 27.4914 185.347 27.8434C185.391 27.4767 185.457 27.0514 185.545 26.5674C185.633 26.0834 185.728 25.6141 185.831 25.1594C185.934 24.6901 186.029 24.2941 186.117 23.9714L188.581 14.9074H191.309L193.817 23.9934C193.92 24.3161 194.022 24.7194 194.125 25.2034C194.228 25.6727 194.323 26.1421 194.411 26.6114C194.499 27.0807 194.565 27.4914 194.609 27.8434C194.653 27.4767 194.712 27.0587 194.785 26.5894C194.873 26.1201 194.968 25.6434 195.071 25.1594C195.174 24.6754 195.276 24.2427 195.379 23.8614L197.535 14.9074H200.351ZM211.64 26.3254C211.64 27.7187 211.134 28.8187 210.122 29.6254C209.11 30.4321 207.709 30.8354 205.92 30.8354C204.189 30.8354 202.723 30.5421 201.52 29.9554V27.3154C202.18 27.6087 202.906 27.8801 203.698 28.1294C204.49 28.3641 205.297 28.4814 206.118 28.4814C207.057 28.4814 207.746 28.2981 208.186 27.9314C208.626 27.5647 208.846 27.0807 208.846 26.4794C208.846 25.8194 208.567 25.2987 208.01 24.9174C207.453 24.5361 206.639 24.1181 205.568 23.6634C204.923 23.3847 204.307 23.0547 203.72 22.6734C203.133 22.2921 202.649 21.8081 202.268 21.2214C201.887 20.6347 201.696 19.8867 201.696 18.9774C201.696 17.6281 202.165 16.5794 203.104 15.8314C204.057 15.0687 205.326 14.6874 206.91 14.6874C207.746 14.6874 208.523 14.7754 209.242 14.9514C209.975 15.1274 210.709 15.3767 211.442 15.6994L210.54 17.9654C209.88 17.6867 209.249 17.4667 208.648 17.3054C208.061 17.1441 207.453 17.0634 206.822 17.0634C206.059 17.0634 205.48 17.2394 205.084 17.5914C204.688 17.9287 204.49 18.3687 204.49 18.9114C204.49 19.3514 204.6 19.7181 204.82 20.0114C205.04 20.3047 205.377 20.5761 205.832 20.8254C206.301 21.0747 206.903 21.3607 207.636 21.6834C208.472 22.0501 209.191 22.4314 209.792 22.8274C210.393 23.2234 210.848 23.7001 211.156 24.2574C211.479 24.8147 211.64 25.5041 211.64 26.3254Z" fill="#F7F7F7"/>
<defs>
<linearGradient id="paint0_linear_10_76" x1="0" y1="0" x2="233.09" y2="26.8635" gradientUnits="userSpaceOnUse">
<stop stop-color="#C20303"/>
<stop offset="0.291667" stop-color="#EC6868"/>
<stop offset="0.734375" stop-color="#E75252"/>
<stop offset="0.869792" stop-color="#CE2828"/>
<stop offset="1" stop-color="#A20000"/>
</linearGradient>
</defs>
</svg>
