<svg width="13" height="12" viewBox="0 0 13 12" fill="none" xmlns="http://www.w3.org/2000/svg">
<path d="M12.2543 0.884353C12.3914 0.885558 12.5257 0.926251 12.6425 1.00203C12.7593 1.0778 12.8542 1.18577 12.9169 1.31425C12.9796 1.44272 13.0077 1.58681 12.9982 1.7309C12.9887 1.875 12.9419 2.01361 12.863 2.13174L12.1052 3.2658C12.0586 7.16035 10.8215 9.80445 8.42795 11.1253C7.28736 11.7222 6.02714 12.0213 4.75366 11.9975C3.17897 12.0356 1.62289 11.6329 0.244428 10.8305C0.151698 10.7649 0.0800302 10.6713 0.0388725 10.5619C-0.0022852 10.4525 -0.0110007 10.3326 0.0138751 10.2179C0.0371636 10.1016 0.0934212 9.99535 0.175224 9.91333C0.257026 9.8313 0.360528 9.77732 0.472071 9.7585C1.3981 9.62233 2.30998 9.3952 3.19579 9.08006C-0.773786 7.14657 0.0916957 2.80023 0.469889 1.46555C0.506759 1.33304 0.576083 1.21308 0.670905 1.11769C0.765728 1.02231 0.882711 0.954863 1.01012 0.922123C1.13752 0.889384 1.27086 0.892503 1.39676 0.931168C1.52265 0.969833 1.63668 1.04268 1.72738 1.14241C2.88934 2.40299 4.42996 3.20117 6.08752 3.40134C6.0581 2.93235 6.12696 2.46229 6.28921 2.02443C6.45147 1.58657 6.70315 1.19161 7.02646 0.867507C7.58654 0.307879 8.33001 -0.00283305 9.10216 1.94683e-05C9.87431 0.00287199 10.6157 0.319069 11.172 0.882821L12.2543 0.884353ZM1.05973 10.4347C2.41395 11.1024 5.58786 11.8275 8.09049 10.4469C10.2396 9.26077 11.3459 6.82343 11.3786 3.20225C11.3801 3.08251 11.4161 2.96607 11.4819 2.86838L12.2681 1.69068L12.2383 1.65009C11.8615 1.64473 11.4899 1.63937 11.1109 1.65009C10.9632 1.64653 10.8217 1.58636 10.7131 1.48086C10.2944 1.03405 9.72601 0.777969 9.12994 0.76766C8.53388 0.757351 7.95776 0.993631 7.52538 1.42573C7.24766 1.70382 7.04008 2.05034 6.92136 2.43401C6.80264 2.81768 6.77652 3.22644 6.84536 3.6234C6.85802 3.69735 6.85452 3.77337 6.83511 3.84568C6.8157 3.91799 6.7809 3.98469 6.73335 4.04073C6.6878 4.09726 6.62975 4.14114 6.56431 4.16851C6.49887 4.19588 6.42805 4.20591 6.35807 4.19771C4.40398 4.05413 2.56915 3.15558 1.20591 1.6746C0.718624 3.2658 0.100423 7.10675 4.01982 8.61602C4.1023 8.64718 4.17461 8.70252 4.22821 8.77551C4.28182 8.8485 4.31449 8.9361 4.32237 9.02799C4.33124 9.11849 4.31543 9.20977 4.27678 9.29114C4.23814 9.37252 4.17827 9.4406 4.10418 9.48743C3.14643 9.97916 2.1175 10.2993 1.05973 10.4347Z" fill="#555D67"/>
</svg>
